<?xml version="1.0" encoding="UTF-8" standalone="no"?>
<!DOCTYPE svg PUBLIC "-//W3C//DTD SVG 1.1//EN"
 "http://www.w3.org/Graphics/SVG/1.1/DTD/svg11.dtd">
<!-- Generated by graphviz version 2.40.1 (20161225.0304)
 -->
<!-- Title: dependencies Pages: 1 -->
<svg width="2377pt" height="284pt"
 viewBox="0.00 0.00 2377.00 284.00" xmlns="http://www.w3.org/2000/svg" xmlns:xlink="http://www.w3.org/1999/xlink">
<g id="graph0" class="graph" transform="scale(1 1) rotate(0) translate(4 280)">
<title>dependencies</title>
<polygon fill="#ffffff" stroke="transparent" points="-4,4 -4,-280 2373,-280 2373,4 -4,4"/>
<text text-anchor="start" x="1163.5091" y="-42.4" font-family="sans-serif" font-weight="bold" font-size="14.00" fill="#000000">Legend</text>
<polygon fill="#ffffb3" stroke="transparent" points="950.5,-10 950.5,-30 970.5,-30 970.5,-10 950.5,-10"/>
<text text-anchor="start" x="974.129" y="-15.4" font-family="sans-serif" font-size="14.00" fill="#000000"> &#160;Declarations</text>
<polygon fill="#8dd3c7" stroke="transparent" points="1063.5,-10 1063.5,-30 1083.5,-30 1083.5,-10 1063.5,-10"/>
<text text-anchor="start" x="1087.2251" y="-15.4" font-family="sans-serif" font-size="14.00" fill="#000000"> &#160;Module</text>
<polygon fill="#80b1d3" stroke="transparent" points="1149.5,-10 1149.5,-30 1169.5,-30 1169.5,-10 1149.5,-10"/>
<text text-anchor="start" x="1173.2812" y="-15.4" font-family="sans-serif" font-size="14.00" fill="#000000"> &#160;Bootstrap</text>
<polygon fill="#fdb462" stroke="transparent" points="1246.5,-10 1246.5,-30 1266.5,-30 1266.5,-10 1246.5,-10"/>
<text text-anchor="start" x="1270.1732" y="-15.4" font-family="sans-serif" font-size="14.00" fill="#000000"> &#160;Providers</text>
<polygon fill="#fb8072" stroke="transparent" points="1342.5,-10 1342.5,-30 1362.5,-30 1362.5,-10 1342.5,-10"/>
<text text-anchor="start" x="1366.2258" y="-15.4" font-family="sans-serif" font-size="14.00" fill="#000000"> &#160;Exports</text>
<g id="clust1" class="cluster">
<title>cluster_AppModule</title>
<polygon fill="none" stroke="#000000" stroke-dasharray="1,5" points="8,-70 8,-268 2361,-268 2361,-70 8,-70"/>
</g>
<g id="clust2" class="cluster">
<title>cluster_AppModule_declarations</title>
<polygon fill="none" stroke="#000000" points="1164,-78 1164,-130 2353,-130 2353,-78 1164,-78"/>
</g>
<g id="clust11" class="cluster">
<title>cluster_AppModule_imports</title>
<polygon fill="none" stroke="#000000" points="489,-78 489,-130 1156,-130 1156,-78 489,-78"/>
</g>
<g id="clust12" class="cluster">
<title>cluster_AppModule_exports</title>
<polygon fill="none" stroke="#000000" points="509,-208 509,-260 1601,-260 1601,-208 509,-208"/>
</g>
<g id="clust13" class="cluster">
<title>cluster_AppModule_bootstrap</title>
<polygon fill="none" stroke="#000000" points="1609,-208 1609,-260 1733,-260 1733,-208 1609,-208"/>
</g>
<g id="clust14" class="cluster">
<title>cluster_AppModule_providers</title>
<polygon fill="none" stroke="#000000" points="16,-78 16,-130 481,-130 481,-78 16,-78"/>
</g>
<!-- AppComponent -->
<g id="node1" class="node">
<title>AppComponent</title>
<polygon fill="#ffffb3" stroke="#000000" points="2344.9399,-122 2239.0601,-122 2239.0601,-86 2344.9399,-86 2344.9399,-122"/>
<text text-anchor="middle" x="2292" y="-99.8" font-family="Times,serif" font-size="14.00" fill="#000000">AppComponent</text>
</g>
<!-- AppModule -->
<g id="node9" class="node">
<title>AppModule</title>
<polygon fill="#8dd3c7" stroke="#000000" points="1202.6571,-187 1199.6571,-191 1178.6571,-191 1175.6571,-187 1119.3429,-187 1119.3429,-151 1202.6571,-151 1202.6571,-187"/>
<text text-anchor="middle" x="1161" y="-164.8" font-family="Times,serif" font-size="14.00" fill="#000000">AppModule</text>
</g>
<!-- AppComponent&#45;&gt;AppModule -->
<g id="edge1" class="edge">
<title>AppComponent&#45;&gt;AppModule</title>
<path fill="none" stroke="#000000" d="M2292,-122.0267C2292,-142.7672 2292,-174 2292,-174 2292,-174 1212.9327,-174 1212.9327,-174"/>
<polygon fill="#000000" stroke="#000000" points="1212.9327,-170.5001 1202.9327,-174 1212.9326,-177.5001 1212.9327,-170.5001"/>
</g>
<!-- HomeComponent -->
<g id="node2" class="node">
<title>HomeComponent</title>
<polygon fill="#ffffb3" stroke="#000000" points="2221.5451,-122 2106.4549,-122 2106.4549,-86 2221.5451,-86 2221.5451,-122"/>
<text text-anchor="middle" x="2164" y="-99.8" font-family="Times,serif" font-size="14.00" fill="#000000">HomeComponent</text>
</g>
<!-- HomeComponent&#45;&gt;AppModule -->
<g id="edge2" class="edge">
<title>HomeComponent&#45;&gt;AppModule</title>
<path fill="none" stroke="#000000" d="M2164,-122.308C2164,-142.1455 2164,-171 2164,-171 2164,-171 1212.8207,-171 1212.8207,-171"/>
<polygon fill="#000000" stroke="#000000" points="1212.8207,-167.5001 1202.8207,-171 1212.8207,-174.5001 1212.8207,-167.5001"/>
</g>
<!-- NavSearchComponent -->
<g id="node3" class="node">
<title>NavSearchComponent</title>
<polygon fill="#ffffb3" stroke="#000000" points="2088.2408,-122 1945.7592,-122 1945.7592,-86 2088.2408,-86 2088.2408,-122"/>
<text text-anchor="middle" x="2017" y="-99.8" font-family="Times,serif" font-size="14.00" fill="#000000">NavSearchComponent</text>
</g>
<!-- NavSearchComponent&#45;&gt;AppModule -->
<g id="edge3" class="edge">
<title>NavSearchComponent&#45;&gt;AppModule</title>
<path fill="none" stroke="#000000" d="M2017,-122.1686C2017,-141.0898 2017,-168 2017,-168 2017,-168 1212.8661,-168 1212.8661,-168"/>
<polygon fill="#000000" stroke="#000000" points="1212.8662,-164.5001 1202.8661,-168 1212.8661,-171.5001 1212.8662,-164.5001"/>
</g>
<!-- UserComponent -->
<g id="node4" class="node">
<title>UserComponent</title>
<polygon fill="#ffffb3" stroke="#000000" points="1927.7591,-122 1820.2409,-122 1820.2409,-86 1927.7591,-86 1927.7591,-122"/>
<text text-anchor="middle" x="1874" y="-99.8" font-family="Times,serif" font-size="14.00" fill="#000000">UserComponent</text>
</g>
<!-- UserComponent&#45;&gt;AppModule -->
<g id="edge4" class="edge">
<title>UserComponent&#45;&gt;AppModule</title>
<path fill="none" stroke="#000000" d="M1874,-122.302C1874,-140.2699 1874,-165 1874,-165 1874,-165 1212.6773,-165 1212.6773,-165"/>
<polygon fill="#000000" stroke="#000000" points="1212.6773,-161.5001 1202.6773,-165 1212.6772,-168.5001 1212.6773,-161.5001"/>
</g>
<!-- RepositoryComponent -->
<g id="node5" class="node">
<title>RepositoryComponent</title>
<polygon fill="#ffffb3" stroke="#000000" points="1802.2702,-122 1659.7298,-122 1659.7298,-86 1802.2702,-86 1802.2702,-122"/>
<text text-anchor="middle" x="1731" y="-99.8" font-family="Times,serif" font-size="14.00" fill="#000000">RepositoryComponent</text>
</g>
<!-- RepositoryComponent&#45;&gt;AppModule -->
<g id="edge5" class="edge">
<title>RepositoryComponent&#45;&gt;AppModule</title>
<path fill="none" stroke="#000000" d="M1692.5423,-122.0352C1692.5423,-138.7344 1692.5423,-161 1692.5423,-161 1692.5423,-161 1212.7092,-161 1212.7092,-161"/>
<polygon fill="#000000" stroke="#000000" points="1212.7093,-157.5001 1202.7092,-161 1212.7092,-164.5001 1212.7093,-157.5001"/>
</g>
<!-- RepositoryDetailComponent -->
<g id="node6" class="node">
<title>RepositoryDetailComponent</title>
<polygon fill="#ffffb3" stroke="#000000" points="1641.4776,-122 1464.5224,-122 1464.5224,-86 1641.4776,-86 1641.4776,-122"/>
<text text-anchor="middle" x="1553" y="-99.8" font-family="Times,serif" font-size="14.00" fill="#000000">RepositoryDetailComponent</text>
</g>
<!-- RepositoryDetailComponent&#45;&gt;AppModule -->
<g id="edge6" class="edge">
<title>RepositoryDetailComponent&#45;&gt;AppModule</title>
<path fill="none" stroke="#000000" d="M1468.9945,-122.2819C1468.9945,-137.9478 1468.9945,-158 1468.9945,-158 1468.9945,-158 1212.8581,-158 1212.8581,-158"/>
<polygon fill="#000000" stroke="#000000" points="1212.8581,-154.5001 1202.8581,-158 1212.858,-161.5001 1212.8581,-154.5001"/>
</g>
<!-- UserFotoComponent -->
<g id="node7" class="node">
<title>UserFotoComponent</title>
<polygon fill="#ffffb3" stroke="#000000" points="1446.9327,-122 1313.0673,-122 1313.0673,-86 1446.9327,-86 1446.9327,-122"/>
<text text-anchor="middle" x="1380" y="-99.8" font-family="Times,serif" font-size="14.00" fill="#000000">UserFotoComponent</text>
</g>
<!-- UserFotoComponent&#45;&gt;AppModule -->
<g id="edge7" class="edge">
<title>UserFotoComponent&#45;&gt;AppModule</title>
<path fill="none" stroke="#000000" d="M1402.2387,-122.1243C1402.2387,-136.7832 1402.2387,-155 1402.2387,-155 1402.2387,-155 1212.7452,-155 1212.7452,-155"/>
<polygon fill="#000000" stroke="#000000" points="1212.7452,-151.5001 1202.7452,-155 1212.7451,-158.5001 1212.7452,-151.5001"/>
</g>
<!-- FriendsComponent -->
<g id="node8" class="node">
<title>FriendsComponent</title>
<polygon fill="#ffffb3" stroke="#000000" points="1295.8258,-122 1172.1742,-122 1172.1742,-86 1295.8258,-86 1295.8258,-122"/>
<text text-anchor="middle" x="1234" y="-99.8" font-family="Times,serif" font-size="14.00" fill="#000000">FriendsComponent</text>
</g>
<!-- FriendsComponent&#45;&gt;AppModule -->
<g id="edge8" class="edge">
<title>FriendsComponent&#45;&gt;AppModule</title>
<path fill="none" stroke="#000000" d="M1187.5828,-122.1061C1187.5828,-122.1061 1187.5828,-140.991 1187.5828,-140.991"/>
<polygon fill="#000000" stroke="#000000" points="1184.0828,-140.9909 1187.5828,-150.991 1191.0828,-140.991 1184.0828,-140.9909"/>
</g>
<!-- HomeComponent  -->
<g id="node15" class="node">
<title>HomeComponent </title>
<polygon fill="#fb8072" stroke="#000000" points="1592.5442,-252 1473.4558,-252 1473.4558,-216 1592.5442,-216 1592.5442,-252"/>
<text text-anchor="middle" x="1533" y="-229.8" font-family="Times,serif" font-size="14.00" fill="#000000">HomeComponent </text>
</g>
<!-- AppModule&#45;&gt;HomeComponent  -->
<g id="edge14" class="edge">
<title>AppModule&#45;&gt;HomeComponent </title>
<path fill="none" stroke="#000000" stroke-dasharray="5,2" d="M1202.95,-181C1300.2375,-181 1533,-181 1533,-181 1533,-181 1533,-205.7604 1533,-205.7604"/>
<polygon fill="#000000" stroke="#000000" points="1529.5001,-205.7604 1533,-215.7604 1536.5001,-205.7604 1529.5001,-205.7604"/>
</g>
<!-- NavSearchComponent  -->
<g id="node16" class="node">
<title>NavSearchComponent </title>
<polygon fill="#fb8072" stroke="#000000" points="1455.2408,-252 1308.7592,-252 1308.7592,-216 1455.2408,-216 1455.2408,-252"/>
<text text-anchor="middle" x="1382" y="-229.8" font-family="Times,serif" font-size="14.00" fill="#000000">NavSearchComponent </text>
</g>
<!-- AppModule&#45;&gt;NavSearchComponent  -->
<g id="edge15" class="edge">
<title>AppModule&#45;&gt;NavSearchComponent </title>
<path fill="none" stroke="#000000" stroke-dasharray="5,2" d="M1202.728,-184C1260.4855,-184 1357.7613,-184 1357.7613,-184 1357.7613,-184 1357.7613,-205.9489 1357.7613,-205.9489"/>
<polygon fill="#000000" stroke="#000000" points="1354.2614,-205.9488 1357.7613,-215.9489 1361.2614,-205.9489 1354.2614,-205.9488"/>
</g>
<!-- UserComponent  -->
<g id="node17" class="node">
<title>UserComponent </title>
<polygon fill="#fb8072" stroke="#000000" points="1290.7591,-252 1179.2409,-252 1179.2409,-216 1290.7591,-216 1290.7591,-252"/>
<text text-anchor="middle" x="1235" y="-229.8" font-family="Times,serif" font-size="14.00" fill="#000000">UserComponent </text>
</g>
<!-- AppModule&#45;&gt;UserComponent  -->
<g id="edge16" class="edge">
<title>AppModule&#45;&gt;UserComponent </title>
<path fill="none" stroke="#000000" stroke-dasharray="5,2" d="M1191.0994,-187.1061C1191.0994,-187.1061 1191.0994,-205.991 1191.0994,-205.991"/>
<polygon fill="#000000" stroke="#000000" points="1187.5995,-205.9909 1191.0994,-215.991 1194.5995,-205.991 1187.5995,-205.9909"/>
</g>
<!-- RepositoryComponent  -->
<g id="node18" class="node">
<title>RepositoryComponent </title>
<polygon fill="#fb8072" stroke="#000000" points="1161.2702,-252 1014.7298,-252 1014.7298,-216 1161.2702,-216 1161.2702,-252"/>
<text text-anchor="middle" x="1088" y="-229.8" font-family="Times,serif" font-size="14.00" fill="#000000">RepositoryComponent </text>
</g>
<!-- AppModule&#45;&gt;RepositoryComponent  -->
<g id="edge17" class="edge">
<title>AppModule&#45;&gt;RepositoryComponent </title>
<path fill="none" stroke="#000000" stroke-dasharray="5,2" d="M1140.1534,-187.1061C1140.1534,-187.1061 1140.1534,-205.991 1140.1534,-205.991"/>
<polygon fill="#000000" stroke="#000000" points="1136.6535,-205.9909 1140.1534,-215.991 1143.6535,-205.991 1136.6535,-205.9909"/>
</g>
<!-- RepositoryDetailComponent  -->
<g id="node19" class="node">
<title>RepositoryDetailComponent </title>
<polygon fill="#fb8072" stroke="#000000" points="997.4782,-252 816.5218,-252 816.5218,-216 997.4782,-216 997.4782,-252"/>
<text text-anchor="middle" x="907" y="-229.8" font-family="Times,serif" font-size="14.00" fill="#000000">RepositoryDetailComponent </text>
</g>
<!-- AppModule&#45;&gt;RepositoryDetailComponent  -->
<g id="edge18" class="edge">
<title>AppModule&#45;&gt;RepositoryDetailComponent </title>
<path fill="none" stroke="#000000" stroke-dasharray="5,2" d="M1119.235,-184C1057.9566,-184 950.8761,-184 950.8761,-184 950.8761,-184 950.8761,-205.9489 950.8761,-205.9489"/>
<polygon fill="#000000" stroke="#000000" points="947.3761,-205.9488 950.8761,-215.9489 954.3761,-205.9489 947.3761,-205.9488"/>
</g>
<!-- UserFotoComponent  -->
<g id="node20" class="node">
<title>UserFotoComponent </title>
<polygon fill="#fb8072" stroke="#000000" points="798.432,-252 661.568,-252 661.568,-216 798.432,-216 798.432,-252"/>
<text text-anchor="middle" x="730" y="-229.8" font-family="Times,serif" font-size="14.00" fill="#000000">UserFotoComponent </text>
</g>
<!-- AppModule&#45;&gt;UserFotoComponent  -->
<g id="edge19" class="edge">
<title>AppModule&#45;&gt;UserFotoComponent </title>
<path fill="none" stroke="#000000" stroke-dasharray="5,2" d="M1119.2373,-181C1022.9997,-181 793.82,-181 793.82,-181 793.82,-181 793.82,-205.7604 793.82,-205.7604"/>
<polygon fill="#000000" stroke="#000000" points="790.32,-205.7604 793.82,-215.7604 797.32,-205.7604 790.32,-205.7604"/>
</g>
<!-- FriendsComponent  -->
<g id="node21" class="node">
<title>FriendsComponent </title>
<polygon fill="#fb8072" stroke="#000000" points="643.3255,-252 516.6745,-252 516.6745,-216 643.3255,-216 643.3255,-252"/>
<text text-anchor="middle" x="580" y="-229.8" font-family="Times,serif" font-size="14.00" fill="#000000">FriendsComponent </text>
</g>
<!-- AppModule&#45;&gt;FriendsComponent  -->
<g id="edge20" class="edge">
<title>AppModule&#45;&gt;FriendsComponent </title>
<path fill="none" stroke="#000000" stroke-dasharray="5,2" d="M1119.3115,-178C994.9773,-178 635.3213,-178 635.3213,-178 635.3213,-178 635.3213,-205.973 635.3213,-205.973"/>
<polygon fill="#000000" stroke="#000000" points="631.8214,-205.973 635.3213,-215.973 638.8214,-205.973 631.8214,-205.973"/>
</g>
<!-- AppComponent  -->
<g id="node22" class="node">
<title>AppComponent </title>
<polygon fill="#80b1d3" stroke="#000000" points="1725.439,-252 1616.561,-252 1616.561,-216 1725.439,-216 1725.439,-252"/>
<text text-anchor="middle" x="1671" y="-229.8" font-family="Times,serif" font-size="14.00" fill="#000000">AppComponent </text>
</g>
<!-- AppModule&#45;&gt;AppComponent  -->
<g id="edge21" class="edge">
<title>AppModule&#45;&gt;AppComponent </title>
<path fill="none" stroke="#000000" stroke-dasharray="1,5" d="M1202.9446,-178C1317.8181,-178 1629.0097,-178 1629.0097,-178 1629.0097,-178 1629.0097,-205.973 1629.0097,-205.973"/>
<polygon fill="#000000" stroke="#000000" points="1625.5097,-205.973 1629.0097,-215.973 1632.5097,-205.973 1625.5097,-205.973"/>
</g>
<!-- HttpClientModule -->
<g id="node10" class="node">
<title>HttpClientModule</title>
<polygon fill="#8dd3c7" stroke="#000000" points="1148.1611,-122 1145.1611,-126 1124.1611,-126 1121.1611,-122 1029.8389,-122 1029.8389,-86 1148.1611,-86 1148.1611,-122"/>
<text text-anchor="middle" x="1089" y="-99.8" font-family="Times,serif" font-size="14.00" fill="#000000">HttpClientModule</text>
</g>
<!-- HttpClientModule&#45;&gt;AppModule -->
<g id="edge9" class="edge">
<title>HttpClientModule&#45;&gt;AppModule</title>
<path fill="none" stroke="#000000" d="M1133.7511,-122.1061C1133.7511,-122.1061 1133.7511,-140.991 1133.7511,-140.991"/>
<polygon fill="#000000" stroke="#000000" points="1130.2511,-140.9909 1133.7511,-150.991 1137.2511,-140.991 1130.2511,-140.9909"/>
</g>
<!-- BrowserModule -->
<g id="node11" class="node">
<title>BrowserModule</title>
<polygon fill="#8dd3c7" stroke="#000000" points="1011.4734,-122 1008.4734,-126 987.4734,-126 984.4734,-122 904.5266,-122 904.5266,-86 1011.4734,-86 1011.4734,-122"/>
<text text-anchor="middle" x="958" y="-99.8" font-family="Times,serif" font-size="14.00" fill="#000000">BrowserModule</text>
</g>
<!-- BrowserModule&#45;&gt;AppModule -->
<g id="edge10" class="edge">
<title>BrowserModule&#45;&gt;AppModule</title>
<path fill="none" stroke="#000000" d="M1004.3628,-122.1243C1004.3628,-136.7832 1004.3628,-155 1004.3628,-155 1004.3628,-155 1109.0241,-155 1109.0241,-155"/>
<polygon fill="#000000" stroke="#000000" points="1109.0241,-158.5001 1119.0241,-155 1109.0241,-151.5001 1109.0241,-158.5001"/>
</g>
<!-- RouterModule -->
<g id="node12" class="node">
<title>RouterModule</title>
<polygon fill="#8dd3c7" stroke="#000000" points="886.6528,-122 883.6528,-126 862.6528,-126 859.6528,-122 789.3472,-122 789.3472,-86 886.6528,-86 886.6528,-122"/>
<text text-anchor="middle" x="838" y="-99.8" font-family="Times,serif" font-size="14.00" fill="#000000">RouterModule</text>
</g>
<!-- RouterModule&#45;&gt;AppModule -->
<g id="edge11" class="edge">
<title>RouterModule&#45;&gt;AppModule</title>
<path fill="none" stroke="#000000" d="M851.7937,-122.2819C851.7937,-137.9478 851.7937,-158 851.7937,-158 851.7937,-158 1109.2991,-158 1109.2991,-158"/>
<polygon fill="#000000" stroke="#000000" points="1109.2991,-161.5001 1119.2991,-158 1109.299,-154.5001 1109.2991,-161.5001"/>
</g>
<!-- NgxPaginationModule -->
<g id="node13" class="node">
<title>NgxPaginationModule</title>
<polygon fill="#8dd3c7" stroke="#000000" points="770.5407,-122 767.5407,-126 746.5407,-126 743.5407,-122 627.4593,-122 627.4593,-86 770.5407,-86 770.5407,-122"/>
<text text-anchor="middle" x="699" y="-99.8" font-family="Times,serif" font-size="14.00" fill="#000000">NgxPaginationModule</text>
</g>
<!-- NgxPaginationModule&#45;&gt;AppModule -->
<g id="edge12" class="edge">
<title>NgxPaginationModule&#45;&gt;AppModule</title>
<path fill="none" stroke="#000000" d="M716.152,-122.0352C716.152,-138.7344 716.152,-161 716.152,-161 716.152,-161 1109.1498,-161 1109.1498,-161"/>
<polygon fill="#000000" stroke="#000000" points="1109.1498,-164.5001 1119.1498,-161 1109.1497,-157.5001 1109.1498,-164.5001"/>
</g>
<!-- APP_ROUTERS -->
<g id="node14" class="node">
<title>APP_ROUTERS</title>
<polygon fill="#8dd3c7" stroke="#000000" points="609.4469,-122 606.4469,-126 585.4469,-126 582.4469,-122 496.5531,-122 496.5531,-86 609.4469,-86 609.4469,-122"/>
<text text-anchor="middle" x="553" y="-99.8" font-family="Times,serif" font-size="14.00" fill="#000000">APP_ROUTERS</text>
</g>
<!-- APP_ROUTERS&#45;&gt;AppModule -->
<g id="edge13" class="edge">
<title>APP_ROUTERS&#45;&gt;AppModule</title>
<path fill="none" stroke="#000000" d="M562.9052,-122.302C562.9052,-140.2699 562.9052,-165 562.9052,-165 562.9052,-165 1108.9431,-165 1108.9431,-165"/>
<polygon fill="#000000" stroke="#000000" points="1108.9432,-168.5001 1118.9431,-165 1108.9431,-161.5001 1108.9432,-168.5001"/>
</g>
<!-- EventsService -->
<g id="node23" class="node">
<title>EventsService</title>
<ellipse fill="#fdb462" stroke="#000000" cx="407" cy="-104" rx="66.0492" ry="18"/>
<text text-anchor="middle" x="407" y="-99.8" font-family="Times,serif" font-size="14.00" fill="#000000">EventsService</text>
</g>
<!-- EventsService&#45;&gt;AppModule -->
<g id="edge22" class="edge">
<title>EventsService&#45;&gt;AppModule</title>
<path fill="none" stroke="#000000" d="M407,-122.1686C407,-141.0898 407,-168 407,-168 407,-168 1109.1172,-168 1109.1172,-168"/>
<polygon fill="#000000" stroke="#000000" points="1109.1173,-171.5001 1119.1172,-168 1109.1172,-164.5001 1109.1173,-171.5001"/>
</g>
<!-- UserService -->
<g id="node24" class="node">
<title>UserService</title>
<ellipse fill="#fdb462" stroke="#000000" cx="265" cy="-104" rx="58.4415" ry="18"/>
<text text-anchor="middle" x="265" y="-99.8" font-family="Times,serif" font-size="14.00" fill="#000000">UserService</text>
</g>
<!-- UserService&#45;&gt;AppModule -->
<g id="edge23" class="edge">
<title>UserService&#45;&gt;AppModule</title>
<path fill="none" stroke="#000000" d="M265,-122.308C265,-142.1455 265,-171 265,-171 265,-171 1109.2839,-171 1109.2839,-171"/>
<polygon fill="#000000" stroke="#000000" points="1109.284,-174.5001 1119.2839,-171 1109.2839,-167.5001 1109.284,-174.5001"/>
</g>
<!-- RepositoryService -->
<g id="node25" class="node">
<title>RepositoryService</title>
<ellipse fill="#fdb462" stroke="#000000" cx="106" cy="-104" rx="82.2411" ry="18"/>
<text text-anchor="middle" x="106" y="-99.8" font-family="Times,serif" font-size="14.00" fill="#000000">RepositoryService</text>
</g>
<!-- RepositoryService&#45;&gt;AppModule -->
<g id="edge24" class="edge">
<title>RepositoryService&#45;&gt;AppModule</title>
<path fill="none" stroke="#000000" d="M106,-122.0267C106,-142.7672 106,-174 106,-174 106,-174 1109.3178,-174 1109.3178,-174"/>
<polygon fill="#000000" stroke="#000000" points="1109.3178,-177.5001 1119.3178,-174 1109.3178,-170.5001 1109.3178,-177.5001"/>
</g>
</g>
</svg>
